<?xml version="1.0" encoding="UTF-8"?>
<svg width="85.058mm" height="31.875mm" version="1.1" viewBox="0 0 85.058 31.875" xmlns="http://www.w3.org/2000/svg">
<defs>
<clipPath id="b">
<path d="m60.15 29.754v14.698h84.989v-14.698zm43.422 7.5003c0.23786 0.21652 0.46004 0.45313 0.6966 0.67128 0.0147-0.01516 0.0299-0.03126 0.0418-0.04341 0.0533-0.05439 0.0853 0.04285 0.13488 0.19895 0.0785 0.06609 0.1589 0.12994 0.24288 0.18914 0.0751 0.05296-0.0199-0.29518-0.0351-0.32918-0.0323-0.07207-0.077 0.0205-0.078-0.0739-0.0786-0.04577-0.31804-0.17594-0.23565-0.13746 0.51252 0.23936 0.81856 0.70189 0.81339 1.234 0.0547 0.09277 0.0885 0.17389 0.0801 0.21136 0.0281 0.06419 0.0567 0.12803 0.0847 0.19224 0.0758 0.07164 0.15227 0.14746 0.22789 0.22789 0.0177 0.01873 5e-3 0.04336-0.0114 0.06925 0.1157 0.09615 0.23938 0.19938 0.37207 0.31161 0.10692 0.13338-0.0795 0.36998-0.01 0.45527 0.0943 0.74993-0.32489 1.3211-0.88264 1.741-0.0132 0.02453-0.0285 0.05166-0.047 0.08217-0.0129 0.02138-0.0307-0.0013-0.0455-0.01498-9e-3 0.0062-0.0175 0.01246-0.0264 0.0186 3e-3 -0.03608 0.0137-0.0304 0.0264-0.0186 0.0312-0.02204 0.062-0.04423 0.0925-0.06718 0.33894-0.62778-0.98615 0.63908-1.0165 0.66404-0.0774 0.01423-0.47013-0.04571-0.51263-0.05943-0.16377 0.0021-0.32631 0.01212-0.49144 0.02016-0.0749-0.0155-0.14905 0.0062-0.27647-0.0083-0.083-0.03275-0.16808 0.01452-0.17208 0.01654l-7e-3 -0.40204c-0.78076-0.07709-1.1184-0.84685-0.93534-1.5022 0.0526-0.12342 0.0537-0.28624 0.15812-0.37052 0.0527-0.04251 0.33336-0.18788 0.57982-0.31161 0.0375-0.02318 0.0755-0.04511 0.11317-0.06511-0.0776-0.18582-0.13894-0.35123-0.18707-0.4501-5e-3 0.02769-5e-3 0.02627-5.3e-4 -5.29e-4v-5.29e-4c-0.0265-0.0544-0.0487-0.0882-0.0677-0.09457-0.0136 0.01953-0.0282 0.03984-0.0444 0.05994 0.012-0.04797 0.0268-0.06584 0.0444-0.05994 0.071-0.10182 0.1064-0.18834 0.11059-0.1788 3e-3 0.0068-0.0115 0.09788-0.0253 0.17828 0.0137-0.07592 0.0313-0.17283 0.0698-0.38189 0.10669-0.11504 0.18631-0.19934 0.27027-0.28887 1e-5 -1.04e-4 -5.3e-4 -0.0016-5.3e-4 -0.0016 0.044-0.13025 0.0816-0.24878 0.11524-0.35915-9e-3 -0.03209-0.0156-0.06457-0.0191-0.09767-0.01-0.09129-0.0549-0.335 0.0145-0.27492 0.0304 0.0263 0.0602 0.05372 0.0889 0.08165 0.30917-1.1346 0.0317-0.97076 0.74983-1.0309zm1.7456 2.113c-0.0621-0.05867-0.12359-0.11415-0.18397-0.16692-4e-3 0.03992-9e-3 0.07979-0.014 0.11938 0.0819 0.0684 0.17898 0.14857 0.27906 0.23151-0.0272-0.06124-0.0543-0.12254-0.0811-0.18397zm-0.18397-0.16692c7.9e-4 -0.0081 1e-3 -0.01619 2e-3 -0.02429-0.0204-0.0084-0.0379-0.01606-0.0579-0.02429 0.0184 0.01574 0.0371 0.03226 0.0558 0.04857zm-0.0558-0.04857c-0.12901-0.11045-0.24874-0.20565-0.3545-0.28835-0.0991-0.01371-0.067 0.04472 0.0662 0.17001 0.0902 0.03677 0.18765 0.07683 0.28835 0.11834zm-0.3545-0.28835c0.0713 0.0099 0.21006 0.05704 0.42839 0.14366 5.3e-4 -0.01452 8e-4 -0.02897 1e-3 -0.04341-0.0949-0.16108-0.25246-0.35766-0.36276-0.42478-0.0685-0.01225-0.12739-0.02201-0.1788-0.02945 0.0104 0.02013 0.0211 0.04008 0.0326 0.05994 9e-3 0.04419 0.0578 0.16565 0.0274 0.13229-0.0719-0.07896-0.127-0.1462-0.1726-0.20567-0.0209-0.0019-0.0343-0.0011-0.0506-0.0016 0.0347 0.07903 0.0707 0.15755 0.10645 0.23616 0.0513 0.04067 0.10342 0.08154 0.16898 0.13281zm-0.79788-0.73277c-0.0302 2.57e-4 -0.0634 0.0011-0.0992 0.0021-0.20477 0.10201-0.34145 0.16461-0.37621 0.22582 0.0736-0.01259 0.15147-0.0209 0.24237-0.02066 0.0548 1.56e-4 0.12275 0.0061 0.18603 0.01035 0.0658-0.07513 0.13146-0.14754 0.19224-0.21342-0.0406-0.0033-0.0881-0.0046-0.14521-0.0041zm-1.5596 2.6086c2e-3 0.0064 0.11001 0.24206 0.1478 0.32453l-1e-3 -0.04082c-0.0902-0.17316-0.15143-0.29664-0.14676-0.2837zm-0.3731 0.75551c0.2057 0.15314 0.3791 0.27359 0.53537 0.38034l-6e-3 -0.34106z" fill="#f00"/>
</clipPath>
<clipPath id="a">
<path d="m41.612 57.773v21.192h59.651v-21.192h-26.715c-0.0071 0.90333-0.27905 1.6081-0.62964 2.1408-0.0093 0.03484-0.02008 0.0734-0.0331 0.11673-0.0091 0.03037-0.02164-0.0019-0.03201-0.02127-0.0062 0.0088-0.01231 0.0177-0.01855 0.02642 0.0023-0.05126 0.0096-0.04319 0.01855-0.02642 0.022-0.03131 0.04365-0.06284 0.06511-0.09544 0.23857-0.89188-0.69414 0.90794-0.71548 0.9434-0.05448 0.02022-0.33092-0.06494-0.36083-0.08443-0.11528 3e-3 -0.22968 0.01722-0.34592 0.02864-0.05273-0.02203-0.10491 0.0088-0.1946-0.01173-0.0584-0.04653-0.11831 0.02064-0.12113 0.02349l-0.0051-0.57118c-0.54962-0.10942-0.78727-1.2031-0.65837-2.1342 0.02191-0.10373 0.0311-0.22656 0.0502-0.33478zm30.442 0.10499c0.0017 0.0091 0.07743 0.3439 0.10403 0.46105l-7.45e-4 -0.05653c-0.06403-0.24812-0.1066-0.42299-0.1033-0.40452zm-0.26262 1.0733c0.1448 0.21757 0.26684 0.38869 0.37684 0.54034l-0.0044-0.48455z" fill="#f00"/>
</clipPath>
</defs>
<g transform="translate(-5.6301 -2.9056)">
<g transform="matrix(1.4207 0 0 .70388 -53.487 -20.801)" clip-path="url(#a)" stroke-width=".57279" aria-label="recipes">
<path d="m43.921 66.412-2.3095 6.5863h1.4969l1.5396-4.3623q0.29938-0.83398 0.76982-1.668t0.98366-1.4755q0.5346-0.6629 1.0692-1.0692 0.5346-0.42768 0.9409-0.42768 0.25661 0 0.42768 0.1283t0.17107 0.34214-0.10692 0.34214q-0.08554 0.1283-0.19246 0.23522-0.10692 0.10692-0.21384 0.23522-0.08554 0.10692-0.08554 0.34214 0 0.29938 0.19246 0.44906t0.49183 0.14969q0.17107 0 0.36353-0.04277t0.36353-0.14969q0.19246-0.1283 0.29938-0.34214 0.1283-0.23522 0.1283-0.57737 0.02138-0.51322-0.4063-0.96228-0.4063-0.44906-1.1975-0.44906-0.55598 0-1.0478 0.29938-0.49183 0.27799-0.89813 0.70567-0.4063 0.4063-0.72706 0.85536t-0.5346 0.76982l-0.04277-0.04277q0.23522-0.64152 0.42768-1.3258 0.21384-0.68429 0.32076-1.1334h-3.2931l-0.08554 0.29938h1.8604q-0.17107 0.57737-0.34214 1.1547t-0.36353 1.1334z"/>
<path d="m57.292 64.872q0 0.55598-0.32076 1.0692-0.29938 0.51322-0.83398 0.89813-0.51322 0.38491-1.1975 0.62014t-1.4541 0.23522q-0.59875 0-1.0906-0.08554 0.19246-0.55598 0.55598-1.1975 0.36353-0.6629 0.85536-1.2189 0.49183-0.57737 1.0906-0.96228 0.62014-0.38491 1.283-0.38491 0.59875 0 0.85536 0.29938t0.25661 0.72706zm0.04277 6.0303-0.25661-0.14969q-0.17107 0.21384-0.44906 0.59875-0.25661 0.36353-0.6629 0.72706-0.38491 0.36353-0.91951 0.64152-0.51322 0.25661-1.1975 0.25661-0.91951 0-1.5183-0.55598-0.59875-0.57737-0.59875-1.7321 0-0.74844 0.14969-1.4113 0.17107-0.68429 0.4063-1.3686 0.25661 0.04277 0.59875 0.06415t0.70567 0.02138q0.21384 0 0.6629-0.04277 0.47045-0.06415 1.0264-0.17107 0.55598-0.1283 1.1334-0.34214 0.59875-0.21384 1.0906-0.51322 0.49183-0.32076 0.79121-0.74844 0.32076-0.44906 0.32076-1.0264 0-0.42768-0.21384-0.72706t-0.55598-0.49183-0.76982-0.27799q-0.42768-0.10692-0.85536-0.10692-1.112 0-2.1812 0.62014t-1.9246 1.5824q-0.83398 0.9409-1.3686 2.0956-0.51322 1.1334-0.51322 2.2026 0 0.5346 0.17107 1.112 0.19246 0.55598 0.57737 1.0264 0.4063 0.47045 1.0264 0.76982 0.64152 0.29938 1.561 0.29938t1.561-0.29938q0.6629-0.32076 1.112-0.70567 0.44906-0.4063 0.70567-0.79121 0.25661-0.4063 0.38491-0.55598z"/>
<path d="m66.653 70.902-0.29938-0.17107q-0.19246 0.32076-0.49183 0.72706-0.29938 0.38491-0.70567 0.72706t-0.91951 0.57737q-0.49183 0.21384-1.0906 0.21384-1.0906 0-1.6252-0.64152-0.51322-0.64152-0.51322-1.561 0-0.62014 0.1283-1.3686 0.14969-0.74844 0.42768-1.5183t0.6629-1.4969 0.87674-1.283q0.51322-0.57737 1.112-0.91951t1.283-0.34214q0.42768 0 0.6629 0.1283 0.25661 0.1283 0.25661 0.47045 0 0.25661-0.08554 0.42768-0.08554 0.14969-0.21384 0.27799-0.10692 0.1283-0.19246 0.29938-0.08554 0.14969-0.08554 0.4063 0 0.21384 0.14969 0.38491 0.14969 0.14969 0.5346 0.14969t0.72706-0.21384q0.36353-0.21384 0.36353-0.91951 0-0.49183-0.19246-0.81259-0.17107-0.34214-0.44906-0.5346t-0.64152-0.27799q-0.34214-0.08554-0.70567-0.08554-1.1761 0-2.2881 0.62014-1.0906 0.59875-1.9459 1.561-0.85536 0.9409-1.3686 2.0956-0.51322 1.1334-0.51322 2.2239 0 0.6629 0.21384 1.2403 0.23522 0.57737 0.64152 1.0264 0.42768 0.42768 1.0478 0.68429t1.4113 0.25661q0.74844 0 1.3472-0.21384t1.0478-0.55598q0.47045-0.34214 0.81259-0.74844 0.36353-0.42768 0.62014-0.83398z"/>
<path d="m72.197 58.777q0 0.42768 0.27799 0.72706 0.29938 0.27799 0.72706 0.27799t0.70567-0.27799q0.29938-0.29938 0.29938-0.72706t-0.29938-0.70567q-0.27799-0.29938-0.70567-0.29938t-0.72706 0.29938q-0.27799 0.27799-0.27799 0.70567zm-1.3258 5.346-2.2026 6.2655q-0.1283 0.36353-0.25661 0.81259-0.1283 0.42768-0.1283 0.79121 0 0.68429 0.4063 0.98366 0.42768 0.27799 1.1334 0.27799 0.64152 0 1.112-0.25661t0.79121-0.59875q0.32076-0.36353 0.49183-0.70567 0.19246-0.36353 0.27799-0.5346l-0.25661-0.10692q-0.08554 0.19246-0.27799 0.51322-0.19246 0.32076-0.47045 0.64152-0.27799 0.29938-0.62014 0.5346-0.32076 0.23522-0.6629 0.23522-0.29938 0-0.44906-0.17107-0.14969-0.19246-0.14969-0.44906 0-0.29938 0.10692-0.62014 0.10692-0.34214 0.21384-0.6629l2.5233-7.2492h-3.4001l-0.08554 0.29938z"/>
<path d="m76.075 70.731 1.6893-4.7686q0.19246-0.25661 0.47045-0.59875 0.27799-0.36353 0.64152-0.70567t0.81259-0.57737q0.47045-0.23522 1.0264-0.23522 0.9409 0 1.3044 0.6629t0.36353 1.5824q0 0.57737-0.14969 1.3258-0.14969 0.72706-0.42768 1.4969-0.25661 0.74844-0.64152 1.4969-0.38491 0.72706-0.85536 1.3044-0.47045 0.55598-1.0264 0.91951-0.5346 0.34214-1.1334 0.34214-0.5346 0-0.89813-0.19246-0.34214-0.21384-0.59875-0.5346-0.23522-0.32076-0.36353-0.70567-0.1283-0.4063-0.21384-0.81259zm0.81259-6.6077-5.1108 14.541h-1.5396l-0.08554 0.29938h4.8328l0.08554-0.29938h-1.7963l2.6088-7.4202h0.04277q0.14969 0.91951 0.74844 1.4755 0.59875 0.5346 1.4327 0.5346 1.2617 0 2.3095-0.59875 1.0692-0.59875 1.839-1.4755 0.76982-0.89813 1.1975-1.9246 0.42768-1.0478 0.42768-1.9459 0-0.74844-0.19246-1.4327t-0.57737-1.1975-0.98366-0.81259q-0.57737-0.32076-1.3686-0.32076-0.51322 0-0.96228 0.17107-0.42768 0.17107-0.79121 0.42768t-0.64152 0.55598q-0.25661 0.27799-0.4063 0.51322h-0.04277l0.44906-1.39h-3.3787l-0.08554 0.29938z"/>
<path d="m92.5 64.872q0 0.55598-0.32076 1.0692-0.29938 0.51322-0.83398 0.89813-0.51322 0.38491-1.1975 0.62014t-1.4541 0.23522q-0.59875 0-1.0906-0.08554 0.19246-0.55598 0.55598-1.1975 0.36353-0.6629 0.85536-1.2189 0.49183-0.57737 1.0906-0.96228 0.62014-0.38491 1.283-0.38491 0.59875 0 0.85536 0.29938t0.25661 0.72706zm0.04277 6.0303-0.25661-0.14969q-0.17107 0.21384-0.44906 0.59875-0.25661 0.36353-0.6629 0.72706-0.38491 0.36353-0.91951 0.64152-0.51322 0.25661-1.1975 0.25661-0.91951 0-1.5183-0.55598-0.59875-0.57737-0.59875-1.7321 0-0.74844 0.14969-1.4113 0.17107-0.68429 0.4063-1.3686 0.25661 0.04277 0.59875 0.06415t0.70567 0.02138q0.21384 0 0.6629-0.04277 0.47045-0.06415 1.0264-0.17107 0.55598-0.1283 1.1334-0.34214 0.59875-0.21384 1.0906-0.51322 0.49183-0.32076 0.79121-0.74844 0.32076-0.44906 0.32076-1.0264 0-0.42768-0.21384-0.72706t-0.55598-0.49183-0.76982-0.27799q-0.42768-0.10692-0.85536-0.10692-1.112 0-2.1812 0.62014t-1.9246 1.5824q-0.83398 0.9409-1.3686 2.0956-0.51322 1.1334-0.51322 2.2026 0 0.5346 0.17107 1.112 0.19246 0.55598 0.57737 1.0264 0.4063 0.47045 1.0264 0.76982 0.64152 0.29938 1.561 0.29938t1.561-0.29938q0.6629-0.32076 1.112-0.70567 0.44906-0.4063 0.70567-0.79121 0.25661-0.4063 0.38491-0.55598z"/>
<path d="m96.729 68.251 1.0692 1.4113q0.32076 0.42768 0.44906 0.76982 0.14969 0.34214 0.14969 0.76982 0 0.27799-0.14969 0.59875t-0.44906 0.57737q-0.27799 0.25661-0.70567 0.42768-0.4063 0.17107-0.9409 0.17107t-0.87674-0.19246q-0.32076-0.21384-0.32076-0.72706 0-0.25661 0.10692-0.47045 0.10692-0.23522 0.10692-0.49183 0-0.19246-0.17107-0.32076-0.14969-0.14969-0.34214-0.14969-0.47045 0-0.76982 0.25661-0.32076 0.23522-0.32076 0.72706 0 0.4063 0.21384 0.72706 0.21384 0.29938 0.57737 0.51322 0.34214 0.19246 0.79121 0.29938t0.9409 0.10692q0.55598 0 1.1761-0.19246 0.64152-0.17107 1.1761-0.5346 0.55598-0.36353 0.91951-0.89813 0.36353-0.55598 0.36353-1.283 0-0.36353-0.10692-0.70567-0.08554-0.36353-0.34214-0.68429l-1.2617-1.6466q-0.38491-0.51322-0.59875-0.87674-0.21384-0.38491-0.21384-0.81259 0-0.32076 0.10692-0.64152 0.1283-0.32076 0.36353-0.57737 0.25661-0.25661 0.62014-0.4063 0.38491-0.14969 0.89813-0.14969 0.72706 0 0.72706 0.55598 0 0.21384-0.14969 0.36353-0.1283 0.1283-0.1283 0.42768 0 0.32076 0.21384 0.49183 0.23522 0.17107 0.5346 0.17107 0.87674 0 0.87674-0.89813 0-0.62014-0.55598-1.005-0.5346-0.4063-1.4327-0.4063-0.72706 0-1.3686 0.25661-0.62014 0.25661-1.0692 0.68429-0.44906 0.4063-0.70567 0.91951t-0.25661 1.005q0 0.57737 0.25661 1.005 0.27799 0.4063 0.59875 0.83398z"/>
</g>
<text x="73.362549" y="76.123505" font-family="sans-serif" font-size="10.583px" stroke-width=".26458" style="line-height:1.35" xml:space="preserve"><tspan x="73.362549" y="76.123505" stroke-width=".26458"/></text>
<text x="145.54182" y="99.788841" font-family="sans-serif" font-size="10.583px" stroke-width=".26458" style="line-height:1.35" xml:space="preserve"><tspan stroke-width=".26458"/></text>
<g transform="translate(-53.487 -20.801)" clip-path="url(#b)" stroke-width=".26458" aria-label="DeeDee's ">
<path d="m64.319 43.899q0.33585 0.03951 0.77047 0.05927 0.45438 0.01976 0.98778 0.01976 0.67169 0 1.3236-0.05927 0.67169-0.07902 1.2644-0.29633 0.61242-0.23707 1.1261-0.65194 0.5334-0.43462 0.94827-1.1261 0.63218-1.0668 0.86925-2.1731 0.25682-1.1261 0.25682-2.4497 0-1.5607-0.29633-2.825-0.29633-1.2841-0.98778-2.1731-0.67169-0.90876-1.7978-1.4026t-2.7855-0.49389q-0.49389 0-0.90876 0.01976-0.39511 0.01975-0.77047 0.03951zm-4.1684 0h2.1929v-13.513h-2.1929v-0.27658h3.6745q0.27658 0 0.55316 0 0.27658-0.01975 0.55316-0.03951 0.27658 0 0.55316 0 0.27658-0.01975 0.55316-0.01975 0.59267 0 1.047 0.01975 0.47414 0.01976 0.86925 0.07902 0.41487 0.03951 0.77047 0.13829 0.37536 0.07902 0.79022 0.21731 1.2051 0.39511 2.0743 1.0668 0.889 0.65194 1.4422 1.5212 0.57291 0.86925 0.82974 1.8965 0.27658 1.0273 0.27658 2.1534 0 1.3039-0.31609 2.3509-0.31609 1.0273-0.86925 1.8373-0.55316 0.79022-1.3039 1.3829-0.73096 0.57291-1.5804 0.92851-0.47413 0.21731-0.90876 0.33585-0.41487 0.11853-0.86925 0.1778-0.43462 0.05927-0.96802 0.07902-0.5334 0.01976-1.2248 0.01976-0.29633 0-0.63218-0.01976-0.33584 0-0.67169-0.01975-0.33584-0.01976-0.67169-0.03951-0.31609 0-0.61242 0h-3.3585z"/>
<path d="m82.602 38.999q0.03951-0.27658 0.03951-0.51364t0-0.49389q0-0.67169-0.13829-1.1063-0.11853-0.43462-0.3556-0.69145-0.21731-0.25682-0.55316-0.3556-0.31609-0.11853-0.69145-0.11853-0.67169 0-1.1063 0.27658-0.43462 0.25682-0.69145 0.7112-0.25682 0.45438-0.39511 1.047-0.11853 0.59267-0.15804 1.2446zm-4.0697 0.27658q0 0.19756-0.01976 0.41487 0 0.19756 0 0.51365 0 0.65194 0.07902 1.3631 0.07902 0.7112 0.33584 1.2841 0.27658 0.57291 0.79022 0.94827 0.5334 0.37536 1.4026 0.37536 0.86925 0 1.4224-0.25682 0.57291-0.25682 0.889-0.61242 0.33584-0.37536 0.49389-0.75071 0.15804-0.37536 0.23707-0.61242l0.29633 0.05927q-0.05927 0.21731-0.23707 0.63218-0.15804 0.39511-0.5334 0.80998-0.3556 0.39511-0.98778 0.7112-0.61242 0.29633-1.6002 0.29633t-1.8373-0.31609q-0.82974-0.31609-1.4422-0.90876-0.61242-0.59267-0.94827-1.4026-0.33585-0.82974-0.33585-1.8373 0-0.86925 0.33585-1.6792 0.3556-0.82974 0.94827-1.4619 0.61242-0.63218 1.4224-1.0075 0.80998-0.39511 1.7385-0.39511 0.55316 0 1.1853 0.19756 0.63218 0.19756 1.1656 0.65194 0.55316 0.43462 0.90876 1.1656 0.37536 0.73096 0.37536 1.8175z"/>
<path d="m92.48 38.999q0.03951-0.27658 0.03951-0.51364t0-0.49389q0-0.67169-0.13829-1.1063-0.11853-0.43462-0.3556-0.69145-0.21731-0.25682-0.55316-0.3556-0.31609-0.11853-0.69145-0.11853-0.67169 0-1.1063 0.27658-0.43462 0.25682-0.69145 0.7112-0.25682 0.45438-0.39511 1.047-0.11853 0.59267-0.15804 1.2446zm-4.0697 0.27658q0 0.19756-0.01976 0.41487 0 0.19756 0 0.51365 0 0.65194 0.07902 1.3631 0.07902 0.7112 0.33584 1.2841 0.27658 0.57291 0.79022 0.94827 0.5334 0.37536 1.4026 0.37536 0.86925 0 1.4224-0.25682 0.57291-0.25682 0.889-0.61242 0.33584-0.37536 0.49389-0.75071 0.15804-0.37536 0.23707-0.61242l0.29633 0.05927q-0.05927 0.21731-0.23707 0.63218-0.15804 0.39511-0.5334 0.80998-0.3556 0.39511-0.98778 0.7112-0.61242 0.29633-1.6002 0.29633t-1.8373-0.31609q-0.82974-0.31609-1.4422-0.90876-0.61242-0.59267-0.94827-1.4026-0.33585-0.82974-0.33585-1.8373 0-0.86925 0.33585-1.6792 0.3556-0.82974 0.94827-1.4619 0.61242-0.63218 1.4224-1.0075 0.80998-0.39511 1.7385-0.39511 0.55316 0 1.1853 0.19756 0.63218 0.19756 1.1656 0.65194 0.55316 0.43462 0.90876 1.1656 0.37536 0.73096 0.37536 1.8175z"/>
<path d="m100.16 43.899q0.33585 0.03951 0.77047 0.05927 0.45438 0.01976 0.98778 0.01976 0.67169 0 1.3236-0.05927 0.67169-0.07902 1.2644-0.29633 0.61243-0.23707 1.1261-0.65194 0.5334-0.43462 0.94827-1.1261 0.63218-1.0668 0.86925-2.1731 0.25682-1.1261 0.25682-2.4497 0-1.5607-0.29633-2.825-0.29634-1.2841-0.98778-2.1731-0.67169-0.90876-1.7978-1.4026t-2.7855-0.49389q-0.49389 0-0.90876 0.01976-0.39511 0.01975-0.77047 0.03951zm-4.1684 0h2.1929v-13.513h-2.1929v-0.27658h3.6745q0.27658 0 0.55316 0 0.27658-0.01975 0.55315-0.03951 0.27658 0 0.55316 0 0.27658-0.01975 0.55316-0.01975 0.59267 0 1.047 0.01975 0.47414 0.01976 0.86925 0.07902 0.41487 0.03951 0.77047 0.13829 0.37536 0.07902 0.79022 0.21731 1.2051 0.39511 2.0743 1.0668 0.889 0.65194 1.4422 1.5212 0.57291 0.86925 0.82974 1.8965 0.27657 1.0273 0.27657 2.1534 0 1.3039-0.31609 2.3509-0.31609 1.0273-0.86924 1.8373-0.55316 0.79022-1.3039 1.3829-0.73096 0.57291-1.5804 0.92851-0.47413 0.21731-0.90876 0.33585-0.41486 0.11853-0.86924 0.1778-0.43463 0.05927-0.96803 0.07902-0.5334 0.01976-1.2248 0.01976-0.29633 0-0.63217-0.01976-0.33585 0-0.67169-0.01975-0.33585-0.01976-0.6717-0.03951-0.31609 0-0.61242 0h-3.3585z"/>
<path d="m118.45 38.999q0.0395-0.27658 0.0395-0.51364t0-0.49389q0-0.67169-0.13829-1.1063-0.11853-0.43462-0.3556-0.69145-0.21731-0.25682-0.55316-0.3556-0.31608-0.11853-0.69144-0.11853-0.67169 0-1.1063 0.27658-0.43463 0.25682-0.69145 0.7112t-0.39511 1.047q-0.11854 0.59267-0.15805 1.2446zm-4.0696 0.27658q0 0.19756-0.0198 0.41487 0 0.19756 0 0.51365 0 0.65194 0.079 1.3631 0.079 0.7112 0.33585 1.2841 0.27658 0.57291 0.79022 0.94827 0.5334 0.37536 1.4026 0.37536t1.4224-0.25682q0.57292-0.25682 0.88901-0.61242 0.33584-0.37536 0.49389-0.75071 0.15804-0.37536 0.23706-0.61242l0.29634 0.05927q-0.0593 0.21731-0.23707 0.63218-0.15805 0.39511-0.5334 0.80998-0.3556 0.39511-0.98778 0.7112-0.61243 0.29633-1.6002 0.29633t-1.8373-0.31609q-0.82973-0.31609-1.4422-0.90876-0.61243-0.59267-0.94827-1.4026-0.33585-0.82974-0.33585-1.8373 0-0.86925 0.33585-1.6792 0.3556-0.82974 0.94827-1.4619 0.61242-0.63218 1.4224-1.0075 0.80998-0.39511 1.7385-0.39511 0.55316 0 1.1853 0.19756t1.1656 0.65194q0.55315 0.43462 0.90876 1.1656 0.37535 0.73096 0.37535 1.8175z"/>
<path d="m128.33 38.999q0.0395-0.27658 0.0395-0.51364t0-0.49389q0-0.67169-0.13829-1.1063-0.11853-0.43462-0.3556-0.69145-0.21731-0.25682-0.55316-0.3556-0.31608-0.11853-0.69144-0.11853-0.67169 0-1.1063 0.27658-0.43463 0.25682-0.69145 0.7112t-0.39511 1.047q-0.11854 0.59267-0.15805 1.2446zm-4.0696 0.27658q0 0.19756-0.0198 0.41487 0 0.19756 0 0.51365 0 0.65194 0.079 1.3631 0.079 0.7112 0.33585 1.2841 0.27658 0.57291 0.79022 0.94827 0.5334 0.37536 1.4026 0.37536t1.4224-0.25682q0.57292-0.25682 0.88901-0.61242 0.33584-0.37536 0.49389-0.75071 0.15804-0.37536 0.23706-0.61242l0.29634 0.05927q-0.0593 0.21731-0.23707 0.63218-0.15805 0.39511-0.5334 0.80998-0.3556 0.39511-0.98778 0.7112-0.61243 0.29633-1.6002 0.29633t-1.8373-0.31609q-0.82973-0.31609-1.4422-0.90876-0.61243-0.59267-0.94827-1.4026-0.33585-0.82974-0.33585-1.8373 0-0.86925 0.33585-1.6792 0.3556-0.82974 0.94827-1.4619 0.61242-0.63218 1.4224-1.0075 0.80998-0.39511 1.7385-0.39511 0.55316 0 1.1853 0.19756t1.1656 0.65194q0.55315 0.43462 0.90876 1.1656 0.37535 0.73096 0.37535 1.8175z"/>
<path d="m133.52 31.117q-0.0198-0.15804-0.0198-0.29633 0-0.15804 0-0.31609 0-0.33584 0.0988-0.5334 0.0988-0.21731 0.39511-0.21731 0.29634 0 0.39511 0.21731 0.0988 0.19756 0.0988 0.5334 0 0.15804 0 0.31609 0 0.13829-0.0198 0.29633l-0.29634 4.3462h-0.3556z"/>
<path d="m137.83 41.41h0.21732q0.13829 0.47413 0.3556 0.96802 0.21731 0.47413 0.57291 0.889 0.37536 0.39511 0.90876 0.65194t1.2841 0.25682q0.63218 0 1.1261-0.37536 0.49389-0.39511 0.49389-1.2644 0-0.75071-0.39511-1.047-0.37536-0.31609-0.889-0.49389l-1.5409-0.5334q-0.29633-0.09878-0.65194-0.23707-0.33584-0.15804-0.63217-0.41487-0.29634-0.27658-0.49389-0.69145-0.17781-0.41487-0.17781-1.0668 0-0.55316 0.21732-1.0273 0.21731-0.47413 0.59266-0.82974 0.37536-0.3556 0.88901-0.55316 0.5334-0.19756 1.1458-0.19756 0.43462 0 0.69145 0.07902 0.27658 0.05927 0.47413 0.13829 0.19756 0.05927 0.3556 0.13829 0.15805 0.05927 0.37536 0.05927t0.31609-0.15804h0.21731v2.2521h-0.21731q-0.13829-0.43462-0.31609-0.82974-0.1778-0.41487-0.43462-0.73096-0.23707-0.31609-0.61243-0.49389-0.3556-0.1778-0.84949-0.1778-0.94827 0-1.4817 0.43462-0.51364 0.41487-0.51364 1.1261 0 0.63218 0.43462 0.96802 0.45438 0.31609 1.3236 0.59267l1.4422 0.47413q0.92852 0.31609 1.5212 0.86925 0.59267 0.55316 0.59267 1.4619 0 0.5334-0.21731 1.047-0.19756 0.51364-0.61242 0.90876-0.39512 0.37536-0.98778 0.61242-0.57292 0.23707-1.3236 0.23707-0.43462 0-0.80998-0.09878-0.3556-0.07902-0.67169-0.1778-0.29633-0.09878-0.55316-0.1778-0.25682-0.09878-0.47413-0.09878t-0.31609 0.09878q-0.0988 0.07902-0.15804 0.1778h-0.21732z"/>
</g>
<path d="m59.95 12.247c0.0606 0.13688 0.0884 0.28506 0.11802 0.42888 0.0356 0.22204 0.0417 0.45195 0.023 0.67582-0.0106 0.12748-0.0325 0.25415-0.0438 0.38159-0.036 0.19121-0.0698 0.3827-0.10401 0.57414-3e-4 0.03044 0.38941 0.03316 0.38971 0.0026v0c0.0376-0.19127 0.0809-0.38192 0.10483-0.57491 0.0554-0.3538 0.0925-0.71048 0.18492-1.0591 0.0225-0.14362 0.0511-0.29588 0.11975-0.42916 0-0.06186-0.79242-0.06186-0.79242 0z" fill-rule="evenodd" opacity=".96785" stroke="#000" stroke-linecap="round" stroke-width=".031603" style="paint-order:stroke fill markers"/>
<path d="m61.384 14.862c0.18461-0.07978 0.43506-0.08431 0.63822-0.10103 0.611-0.0288-0.17442 0.0063 0.43045-0.01456 0.0489-0.0016-0.19568-0.0021-0.14696 0.0021 0.0815 0.0073 0.1639 0.0037 0.24579 0.0068 0.20799 8e-3 0.28114 0.0144 0.4875 0.02832 0.4725 0.03438 0.94322 0.08614 1.4122 0.14553 0.45258 0.05026 0.89833 0.13013 1.3403 0.22562 0.19127 0.04708 0.38233 0.09449 0.57266 0.14423 3e-3 0.03501 0.45116 0.01052 0.44852-0.0245v0c-0.20349-0.04962-0.40723-0.09843-0.61243-0.14272-0.45215-0.09475-0.90889-0.1725-1.3706-0.22561-0.47259-0.05825-0.94595-0.11274-1.4221-0.14599-0.6033-0.03762-1.2089-0.05899-1.8134-0.02636-0.33388 0.01876-0.66736 0.04421-0.99856 0.08529-5e-3 0.06154 0.78375 0.10443 0.78839 0.04287z" fill-rule="evenodd" opacity=".96785" stroke="#000" stroke-linecap="round" stroke-width=".031603" style="paint-order:stroke fill markers"/>
<path d="m68.456 14.833c-0.0865-0.13062-0.12151-0.2805-0.1591-0.4259-0.0759-0.2865-0.0696-0.58281-0.0535-0.87438 0.0234-0.20956 0.0806-0.41411 0.12417-0.62083 5.4e-4 -0.03762-0.4814-0.04148-0.48182-0.0039v0c-0.04 0.20744-0.0805 0.41477-0.11459 0.62299-0.0289 0.29226-0.0536 0.58447-0.041 0.87818-7e-3 0.14315-8e-3 0.28726-0.0662 0.42381 0 0.06183 0.79202 0.06183 0.79202 0z" fill-rule="evenodd" opacity=".96785" stroke="#000" stroke-linecap="round" stroke-width=".031603" style="paint-order:stroke fill markers"/>
<path d="m60.695 12.149c0.19348-0.03142 0.3947-0.03418 0.59118-0.04486 0.50022-0.03646 1.0003-0.04344 1.5016-0.03043 0.61954 0.02078 1.2358 0.07774 1.8496 0.15033 0.52956 0.06145 1.0542 0.14983 1.5739 0.25519 0.45421 0.09414 0.89753 0.2198 1.3402 0.34659 0.0676 0.02067 0.13518 0.04132 0.20277 0.06199 2e-3 0.03167 0.40807 0.01023 0.40575-0.02143v0c-0.0715-0.02045-0.14304-0.04091-0.21456-0.06137-0.46139-0.12675-0.92173-0.25661-1.3961-0.34507-0.54416-0.10344-1.0921-0.19189-1.6455-0.25218-0.63093-0.06712-1.2633-0.12584-1.899-0.14822-0.70093-0.02137-1.4013-0.0087-2.1017 0.01972-0.33225 0.0069-0.66508 0.0069-0.99685 0.02371-5e-3 0.06158 0.78381 0.10765 0.7888 0.04607z" fill-rule="evenodd" opacity=".96785" stroke="#000" stroke-linecap="round" stroke-width=".031603" style="paint-order:stroke fill markers"/>
<path d="m64.934 11.845c-0.0603-0.06864-0.0665-0.15386-0.0953-0.23259-0.0213-0.05834-0.0538-0.11363-0.0725-0.17261-0.0444-0.13968-0.0801-0.36682-0.10494-0.50432-0.0852-0.58206-0.10094-1.1772-0.0295-1.7614 0.0159-0.1298 0.0408-0.25868 0.0612-0.38802 0.10184-0.61843 0.2567-1.2294 0.4412-1.8336 4e-5 -3e-3 -0.0381-0.0034-0.0381-3.73e-4v0c-0.14583 0.61034-0.32336 1.2154-0.41912 1.8338-0.0189 0.12936-0.0414 0.25837-0.0568 0.38806-0.0697 0.58632-0.0722 1.1777-0.17294 1.7613-0.0362 0.17177-0.0648 0.3366-0.12183 0.50424-0.02 0.05877-0.0517 0.11429-0.0729 0.17277-0.0289 0.07985-0.0343 0.1646-0.0992 0.23259 0 0.06096 0.78087 0.06096 0.78087 0z" fill-rule="evenodd" opacity=".96785" stroke="#000" stroke-linecap="round" stroke-width=".031603" style="paint-order:stroke fill markers"/>
<path d="m64.934 11.845c-0.0432-0.05509-0.0496-0.11657-0.0567-0.18094-0.0208-0.18851 0.0206-0.24968 0.0931-0.42802 0.20684-0.47967 0.56921-0.89248 0.94559-1.2848 0.45823-0.45828 0.96737-0.87627 1.4846-1.2858 0.0889-0.06932 0.17778-0.13864 0.26667-0.20797 5.5e-4 -0.01134-0.14482-0.01647-0.14537-0.0051v0c-0.0918 0.06923-0.18371 0.13847-0.27556 0.2077-0.5102 0.41968-1.0371 0.8265-1.4992 1.2862-0.42345 0.40899-0.82822 0.83195-1.1902 1.2819-0.15592 0.19665-0.3091 0.39476-0.40944 0.61682 0 0.06141 0.78657 0.06141 0.78657 0z" fill-rule="evenodd" opacity=".96785" stroke="#000" stroke-linecap="round" stroke-width=".031603" style="paint-order:stroke fill markers"/>
<path d="m60.725 11.893c-0.14032-0.15173-0.23507-0.32788-0.33436-0.50003-0.13397-0.25645-0.31404-0.49146-0.48812-0.72875-0.20296-0.29368-0.45325-0.56079-0.69238-0.83336-0.29856-0.32691-0.61169-0.64382-0.92295-0.96198-0.33963-0.36608-0.67001-0.73885-0.96162-1.1339-0.30211-0.40991-0.4666-0.87265-0.58232-1.3422-0.0498-0.3029-0.0714-0.61987-0.016-0.92408 0.0314-0.17226 0.084-0.2935 0.14496-0.45895 0.12612-0.28289 0.27056-0.57 0.49609-0.80782 0.1304-0.13752 0.23332-0.20835 0.38593-0.32678 0.35593-0.23983 0.76512-0.43968 1.2164-0.51398 0.0841-0.01385 0.17007-0.01723 0.25511-0.02584-0.0548 0.0024-0.10951 0.0048-0.16427 0.0071 3e-3 0.03124 0.40306 5e-3 0.40022-0.02627v0c-0.20236-0.0012-0.40473-0.0023-0.60709-0.0034-0.0741 0.01-0.14934 0.01529-0.22241 0.02986-0.43614 0.08696-0.83439 0.28676-1.1808 0.52184-0.16422 0.12509-0.25386 0.18373-0.39434 0.32932-0.2298 0.23817-0.37424 0.52106-0.48229 0.81247-0.15653 0.45411-0.2579 0.91774-0.14144 1.3894 0.0192 0.07536 0.0343 0.15155 0.0576 0.22609 0.12193 0.39102 0.3248 0.76472 0.54852 1.12 0.26736 0.39712 0.58056 0.76919 0.90016 1.1371 0.28894 0.31637 0.58323 0.62974 0.8445 0.96339 0.21716 0.27308 0.44591 0.53997 0.6256 0.83319 0.16201 0.2339 0.30213 0.47819 0.42831 0.72745 0.0562 0.13167 0.10529 0.2559 0.11915 0.39604 2e-3 0.02111 8e-3 0.04235 6e-3 0.06341-2e-3 0.01482-0.0132 0.02764-0.0198 0.04146 1e-3 0.06104 0.78309 0.05035 0.78194-0.0107z" fill-rule="evenodd" opacity=".96785" stroke="#000" stroke-linecap="round" stroke-width=".031603" style="paint-order:stroke fill markers"/>
<path d="m59.187 3.9883c0.0312-0.07464 0.10484-0.14113 0.16931-0.19778 0.19323-0.18837 0.44702-0.31942 0.69984-0.4419 0.34228-0.15959 0.71797-0.23897 1.099-0.29725 0.0609-0.11531 0.33856 0.0666 0.40063-0.03447 0.03-0.04892-0.25715-0.01538-0.1949 4.44e-4 0.0786 0.01993 0.16407 0.0058 0.24577 0.01249 0.21852 0.01773 0.3076 0.03664 0.52613 0.07177 0.55702 0.09928 1.0751 0.29386 1.5715 0.52484 0.3914 0.18528 0.7624 0.39883 1.1388 0.60478 1e-3 0.02504 0.32223 0.01139 0.32075-0.01365v0c-0.38216-0.20743-0.7644-0.41537-1.1594-0.60494-0.49224-0.21862-0.99797-0.41827-1.5404-0.53029-0.57571-0.11019-1.1712-0.1361-1.7565-0.05737-0.38696 0.06087-0.7699 0.13889-1.1175 0.3022-0.30095 0.13358-0.59501 0.27714-0.87542 0.44026-0.10871 0.0676-0.22006 0.13423-0.33439 0.194-3e-3 0.06298 0.80382 0.0899 0.80674 0.02692z" fill-rule="evenodd" opacity=".96785" stroke="#000" stroke-linecap="round" stroke-width=".031603" style="paint-order:stroke fill markers"/>
<path d="m65.954 3.7638c0.01-0.11034 0.0904-0.1972 0.17544-0.27644 0.23601-0.20587 0.54917-0.31282 0.86139-0.40803 0.202-0.05319 0.4079-0.09415 0.61858-0.11233 0.0722-0.0062 0.15896 0.02488 0.21716-0.01188 0.0537-0.03395-0.25433-0.0327-0.20094 0.0017 0.0611 0.03932 0.15282 0.01103 0.22923 0.01656 0.51251 0.05929 1.0081 0.1926 1.4921 0.34364 0.47466 0.14122 0.88195 0.38425 1.266 0.65359 1e-3 0.01941 0.2496 0.01023 0.24861-0.0092v0c-0.36671-0.26963-0.75268-0.51897-1.2148-0.65983-0.45121-0.15104-0.90772-0.29841-1.3916-0.35338-0.5704-0.04869-1.1483-0.04088-1.6975 0.10835-0.35947 0.10372-0.71626 0.22027-1.027 0.40978-0.13964 0.08172-0.25614 0.17785-0.3725 0.28187-2e-3 0.06213 0.79413 0.07779 0.79583 0.01567z" fill-rule="evenodd" opacity=".96785" stroke="#000" stroke-linecap="round" stroke-width=".031603" style="paint-order:stroke fill markers"/>
<path d="m68.523 12.813c-0.036-0.10348-2e-3 -0.21602 0.0177-0.31988 0.0427-0.22628 0.11661-0.4449 0.23016-0.65261 0.13624-0.26302 0.32506-0.50304 0.498-0.74907 0.27134-0.34441 0.6489-0.60015 1.0424-0.83707 0.51853-0.29033 1.0606-0.54721 1.574-0.84422 0.088-0.05893 0.18077-0.113 0.26392-0.17677 0.27479-0.21074 0.50745-0.46445 0.73413-0.71129 0.16124-0.17557 0.32124-0.35196 0.48223-0.52768 0.20555-0.22782 0.3857-0.47362 0.50698-0.7426 0.0928-0.20584 0.1397-0.42488 0.19062-0.64-2e-3 -0.06994 6e-3 -0.14055-6e-3 -0.20982-0.041-0.24544-0.18412-0.47749-0.31313-0.69549-0.12205-0.20624-0.17911-0.29258-0.30848-0.49639-0.21853-0.33499-0.47148-0.65438-0.77111-0.94116-0.18289-0.17504-0.28216-0.25117-0.47914-0.41399-0.23457-0.18717-0.48858-0.35483-0.7428-0.52189-8.2e-4 -0.01694-0.218-0.0083-0.21706 0.0087v0c0.26764 0.16447 0.53182 0.3326 0.77892 0.51935 0.48402 0.40186 0.92237 0.83644 1.2305 1.353 0.24812 0.43862 0.49359 0.89715 0.45484 1.3956-0.0445 0.48127-0.11291 0.9664-0.42872 1.3819-0.14414 0.17665-0.28938 0.36244-0.45088 0.5283-0.32793 0.33677-0.70296 0.64084-1.1335 0.88147-0.53187 0.29565-1.0912 0.55317-1.628 0.84205-0.44686 0.24057-0.90237 0.48492-1.2425 0.83561-0.21756 0.23179-0.41325 0.47792-0.55085 0.75176-0.0524 0.08268-0.10873 0.16365-0.15789 0.24776-0.0609 0.1042-0.10274 0.21164-0.15132 0.31953-0.0135 0.03011-0.0313 0.05873-0.0469 0.0881-0.048 0.10948-0.0913 0.23427-0.1843 0.32191-5.5e-4 0.06306 0.80732 0.06793 0.80784 0.0049z" fill-rule="evenodd" opacity=".96785" stroke="#000" stroke-linecap="round" stroke-width=".031603" style="paint-order:stroke fill markers"/>
<path d="m61.792 11.998c-0.14643-0.24028-0.20338-0.52222-0.27765-0.78429-0.10598-0.32702-0.24522-0.64316-0.39534-0.95702-3.6e-4 -0.01745-0.22393-0.0141-0.22356 0.0034v0c0.11395 0.31284 0.224 0.6251 0.23058 0.95594 5e-3 0.26097 0.0161 0.53776-0.0991 0.78405 2.2e-4 0.05973 0.76531 0.0577 0.76509-2e-3z" fill-rule="evenodd" opacity=".96785" stroke="#000" stroke-linecap="round" stroke-width=".031603" style="paint-order:stroke fill markers"/>
<path d="m66.444 12.271c-0.0102-0.03207-0.031-0.093-0.0318-0.12151-5e-3 -0.16936 0.0823-0.3688 0.14811-0.52442 0.0902-0.22097 0.25455-0.40699 0.41196-0.59534 8.2e-4 -0.01866-0.23836-0.02544-0.23909-0.0068v0c-0.20009 0.19409-0.40828 0.38334-0.58499 0.59371-0.0457 0.05479-0.0936 0.10824-0.13703 0.16436-0.123 0.15908-0.21117 0.33699-0.3501 0.48742-3e-4 0.06112 0.7827 0.06368 0.78297 0.0026z" fill-rule="evenodd" opacity=".96785" stroke="#000" stroke-linecap="round" stroke-width=".031603" style="paint-order:stroke fill markers"/>
<path d="m63.231 12.051c-0.16436-0.24348-0.21887-0.52558-0.2814-0.80029-0.0792-0.32198-0.13228-0.65031-0.24166-0.9659-0.0708-0.20423-0.11988-0.29063-0.21521-0.4873-0.25595-0.49094-0.6049-0.93575-0.93684-1.3863-0.0532-0.07065-0.1063-0.14129-0.15944-0.21194-6.9e-4 -0.01975-0.23912-0.01319-0.23845 0.0066v0c0.0587 0.07047 0.11747 0.14094 0.17621 0.21142 0.34264 0.44263 0.6859 0.88872 0.92935 1.3843 0.0357 0.08114 0.0747 0.16118 0.10712 0.24343 0.15286 0.38754 0.23247 0.79731 0.25632 1.2072-5.5e-4 0.119 4e-3 0.29104-0.0158 0.41141-9e-3 0.0556-0.0283 0.10947-0.0437 0.16393-0.0211 0.0747-0.0388 0.15787-0.0864 0.22351 0 0.06211 0.74985 0.06211 0.74985 0z" fill-rule="evenodd" opacity=".96785" stroke="#000" stroke-linecap="round" stroke-width=".030806" style="paint-order:stroke fill markers"/>
</g>
</svg>
